<?xml version="1.0" encoding="iso-8859-1"?>
<!-- Generator: Adobe Illustrator 19.0.0, SVG Export Plug-In . SVG Version: 6.00 Build 0)  -->
<svg version="1.1" id="Layer_1" xmlns="http://www.w3.org/2000/svg" xmlns:xlink="http://www.w3.org/1999/xlink" x="0px" y="0px"
	 viewBox="0 0 512 512" style="enable-background:new 0 0 512 512;" xml:space="preserve">
<g>
	<g>
		<path d="M256,9.309c-28.364,0-55.642,4.729-81.097,13.43C166.767,9.148,151.941,0,134.982,0
			c-25.664,0-46.545,20.882-46.545,46.545c0,7.987,2.027,15.509,5.586,22.084C39.407,114.773,4.655,183.727,4.655,260.655
			C4.655,399.245,117.409,512,256,512s251.345-112.755,251.345-251.345S394.591,9.309,256,9.309z M134.982,18.618
			c9.021,0,17.032,4.316,22.141,10.973c-17.077,7.336-33.181,16.514-48.067,27.277c-1.277-3.198-2.001-6.675-2.001-10.323
			C107.055,31.145,119.582,18.618,134.982,18.618z M162.866,47.398c-0.456,15.005-12.772,27.075-27.884,27.075
			c-4.939,0-9.574-1.3-13.603-3.559C134.293,61.723,148.191,53.832,162.866,47.398z M256,493.382
			c-128.327,0-232.727-104.4-232.727-232.727c0-71.211,32.16-135.043,82.707-177.768c7.963,6.37,18.037,10.204,29.002,10.204
			c25.664,0,46.545-20.882,46.545-46.545c0-2.12-0.192-4.191-0.468-6.236c23.526-8.023,48.734-12.382,74.941-12.382
			c128.327,0,232.727,104.4,232.727,232.727S384.327,493.382,256,493.382z"/>
	</g>
</g>
<g>
	<g>
		<path d="M460.8,195.491c0-25.664-20.882-46.545-46.545-46.545c-3,0-5.927,0.311-8.772,0.857
			c-33.961-45.677-88.32-75.33-149.483-75.33c-102.659,0-186.182,83.518-186.182,186.182S153.341,446.836,256,446.836
			c102.659,0,186.182-83.518,186.182-186.182c0-9.025-0.68-17.891-1.927-26.575C452.641,225.707,460.8,211.532,460.8,195.491z
			 M398.422,172.511c9.532,15.343,16.63,32.334,20.811,50.436c-1.618,0.293-3.276,0.47-4.978,0.47
			c-15.4,0-27.927-12.527-27.927-27.927C386.327,185.968,391.125,177.555,398.422,172.511z M256,428.218
			c-92.396,0-167.564-75.173-167.564-167.564S163.604,93.091,256,93.091c53.413,0,101.032,25.152,131.736,64.2
			c-12.086,8.416-20.027,22.391-20.027,38.2c0,25.664,20.882,46.545,46.545,46.545c2.786,0,5.501-0.291,8.153-0.761
			c0.736,6.364,1.156,12.823,1.156,19.379C423.564,353.045,348.395,428.218,256,428.218z M435.976,213.005
			c-4.251-16.045-10.619-31.229-18.748-45.277c14.006,1.489,24.953,13.368,24.953,27.764
			C442.182,202.121,439.85,208.211,435.976,213.005z"/>
	</g>
</g>
<g>
	<g>
		<path d="M256,204.8c-30.8,0-55.855,25.055-55.855,55.855S225.2,316.509,256,316.509c30.8,0,55.855-25.055,55.855-55.855
			S286.8,204.8,256,204.8z M256,297.891c-20.532,0-37.236-16.7-37.236-37.236s16.705-37.236,37.236-37.236
			c20.532,0,37.236,16.7,37.236,37.236S276.532,297.891,256,297.891z"/>
	</g>
</g>
<g>
</g>
<g>
</g>
<g>
</g>
<g>
</g>
<g>
</g>
<g>
</g>
<g>
</g>
<g>
</g>
<g>
</g>
<g>
</g>
<g>
</g>
<g>
</g>
<g>
</g>
<g>
</g>
<g>
</g>
</svg>
